<?xml version="1.0" encoding="UTF-8" standalone="no"?>
<svg
   xmlns:dc="http://purl.org/dc/elements/1.1/"
   xmlns:cc="http://creativecommons.org/ns#"
   xmlns:rdf="http://www.w3.org/1999/02/22-rdf-syntax-ns#"
   xmlns:svg="http://www.w3.org/2000/svg"
   xmlns="http://www.w3.org/2000/svg"
   xmlns:sodipodi="http://sodipodi.sourceforge.net/DTD/sodipodi-0.dtd"
   xmlns:inkscape="http://www.inkscape.org/namespaces/inkscape"
   width="82.880234mm"
   height="38.339497mm"
   viewBox="0 0 82.880234 38.339496"
   version="1.1"
   id="svg8"
   inkscape:version="1.0 (4035a4fb49, 2020-05-01)"
   sodipodi:docname="icons.svg">
  <defs
     id="defs2" />
  <sodipodi:namedview
     id="base"
     pagecolor="#ffffff"
     bordercolor="#666666"
     borderopacity="1.0"
     inkscape:pageopacity="0.0"
     inkscape:pageshadow="2"
     inkscape:zoom="2.8"
     inkscape:cx="180.8784"
     inkscape:cy="97.098115"
     inkscape:document-units="mm"
     inkscape:current-layer="layer1"
     inkscape:document-rotation="0"
     showgrid="false"
     inkscape:window-width="1920"
     inkscape:window-height="1027"
     inkscape:window-x="1912"
     inkscape:window-y="-8"
     inkscape:window-maximized="1"
     fit-margin-top="0"
     fit-margin-left="0"
     fit-margin-right="0"
     fit-margin-bottom="0" />
  <metadata
     id="metadata5">
    <rdf:RDF>
      <cc:Work
         rdf:about="">
        <dc:format>image/svg+xml</dc:format>
        <dc:type
           rdf:resource="http://purl.org/dc/dcmitype/StillImage" />
        <dc:title />
      </cc:Work>
    </rdf:RDF>
  </metadata>
  <g
     inkscape:label="Layer 1"
     inkscape:groupmode="layer"
     id="layer1"
     transform="translate(-63.439015,-5.4529189)">
    <text
       inkscape:export-ydpi="300"
       inkscape:export-xdpi="300"
       xml:space="preserve"
       style="font-style:normal;font-variant:normal;font-weight:normal;font-stretch:normal;font-size:17.6389px;line-height:1.25;font-family:Playball;-inkscape-font-specification:'Playball, Normal';font-variant-ligatures:normal;font-variant-caps:normal;font-variant-numeric:normal;font-variant-east-asian:normal;text-align:center;letter-spacing:0px;word-spacing:0px;text-anchor:middle;fill:#550022;fill-opacity:1;stroke-width:0.264583"
       x="103.94344"
       y="17.764872"
       id="text839"><tspan
         sodipodi:role="line"
         id="tspan837"
         x="103.94344"
         y="17.764872"
         style="font-style:normal;font-variant:normal;font-weight:normal;font-stretch:normal;font-size:17.6389px;font-family:Playball;-inkscape-font-specification:'Playball, Normal';font-variant-ligatures:normal;font-variant-caps:normal;font-variant-numeric:normal;font-variant-east-asian:normal;fill:#550022;fill-opacity:1;stroke-width:0.264583">Investigators</tspan></text>
    <text
       inkscape:export-ydpi="300"
       inkscape:export-xdpi="300"
       xml:space="preserve"
       style="font-style:normal;font-variant:normal;font-weight:normal;font-stretch:normal;font-size:5.7981px;line-height:0.75;font-family:'Bebas Neue';-inkscape-font-specification:'Bebas Neue, Normal';font-variant-ligatures:normal;font-variant-caps:normal;font-variant-numeric:normal;font-variant-east-asian:normal;text-align:center;letter-spacing:0px;word-spacing:0px;text-anchor:middle;fill:#aa0044;fill-opacity:1;stroke-width:0.0869717"
       x="85.069801"
       y="9.5695734"
       id="text835"><tspan
         sodipodi:role="line"
         x="85.069801"
         y="9.5695734"
         style="font-style:normal;font-variant:normal;font-weight:normal;font-stretch:normal;font-size:5.7981px;font-family:'Bebas Neue';-inkscape-font-specification:'Bebas Neue, Normal';font-variant-ligatures:normal;font-variant-caps:normal;font-variant-numeric:normal;font-variant-east-asian:normal;fill:#aa0044;fill-opacity:1;stroke-width:0.0869717"
         id="tspan929">Investigating</tspan></text>
    <g
       inkscape:export-ydpi="300"
       inkscape:export-xdpi="300"
       id="_x34_3_search"
       transform="matrix(0.00584635,-0.02210331,0.02210331,0.00584635,122.38386,20.677694)">
      <path
         id="path2"
         transform="matrix(0.707,0.707,-0.707,0.707,290.748,-22.15)"
         fill="#8d9ca8"
         d="m 146.03,264.907 h 52.162 V 414.871 H 146.03 Z"
         style="fill:#550022;fill-opacity:1" />
      <path
         id="path4"
         fill="#fe646f"
         d="m 12.986,499.014 c -17.315,-17.315 -17.315,-45.388 0,-62.703 L 131.631,317.666 c 6.451,-6.451 16.909,-6.451 23.36,0 l 39.343,39.343 c 6.451,6.451 6.451,16.909 0,23.36 L 75.69,499.014 c -17.315,17.315 -45.389,17.315 -62.704,0 z"
         style="fill:#ff6600" />
      <circle
         id="circle6"
         r="178.239"
         fill="#9facba"
         cy="178.239"
         cx="333.76099"
         style="fill:#aa0044" />
      <circle
         id="circle8"
         r="127.646"
         fill="#d8ecfe"
         cy="178.239"
         cx="333.76099" />
      <path
         id="path10"
         fill="#8d9ca8"
         d="m 459.795,52.205 c -4.17,-4.17 -8.499,-8.083 -12.96,-11.753 57.597,70.016 53.684,173.671 -11.753,239.108 -65.437,65.437 -169.091,69.35 -239.108,11.753 3.67,4.462 7.583,8.79 11.753,12.96 69.607,69.607 182.461,69.607 252.068,0 69.607,-69.607 69.607,-182.462 0,-252.068 z"
         style="fill:#550022" />
      <path
         id="path12"
         fill="#fd4755"
         d="m 194.334,357.009 -24.713,-24.713 c 6.451,6.451 6.451,16.909 0,23.36 L 50.977,474.301 c -12.927,12.927 -31.848,16.198 -47.814,9.823 2.164,5.42 5.435,10.501 9.824,14.889 17.315,17.315 45.388,17.315 62.703,0 L 194.335,380.368 c 6.45,-6.45 6.45,-16.908 -0.001,-23.359 z"
         style="fill:#d45500" />
      <path
         id="path14"
         fill="#c4e2ff"
         d="m 424.021,87.979 c -3.388,-3.388 -6.924,-6.536 -10.581,-9.463 40.068,50.072 36.919,123.556 -9.463,169.938 -46.381,46.381 -119.866,49.53 -169.938,9.463 2.926,3.657 6.075,7.194 9.463,10.581 49.769,49.769 130.75,49.769 180.519,0 49.769,-49.769 49.769,-130.75 0,-180.519 z" />
    </g>
    <text
       inkscape:export-ydpi="300"
       inkscape:export-xdpi="300"
       id="text835-3"
       y="119.7339"
       x="51.720703"
       style="font-style:normal;font-variant:normal;font-weight:normal;font-stretch:normal;font-size:3.97877px;line-height:0.75;font-family:'Bebas Neue';-inkscape-font-specification:'Bebas Neue, Normal';font-variant-ligatures:normal;font-variant-caps:normal;font-variant-numeric:normal;font-variant-east-asian:normal;text-align:center;letter-spacing:0px;word-spacing:0px;text-anchor:middle;fill:#ff6600;fill-opacity:1;stroke-width:0.0596815"
       xml:space="preserve"
       transform="rotate(-60)"><tspan
         id="tspan929-1"
         style="font-style:normal;font-variant:normal;font-weight:normal;font-stretch:normal;font-size:3.97877px;font-family:'Bebas Neue';-inkscape-font-specification:'Bebas Neue, Normal';font-variant-ligatures:normal;font-variant-caps:normal;font-variant-numeric:normal;font-variant-east-asian:normal;fill:#ff6600;fill-opacity:1;stroke-width:0.0596815"
         y="119.7339"
         x="51.720703"
         sodipodi:role="line">THE</tspan></text>
    <g
       transform="matrix(0.00584635,-0.02210331,0.02210331,0.00584635,131.18744,38.945556)"
       id="_x34_3_search-3"
       inkscape:export-xdpi="300"
       inkscape:export-ydpi="300">
      <path
         style="fill:#550022;fill-opacity:1"
         d="m 146.03,264.907 h 52.162 V 414.871 H 146.03 Z"
         fill="#8d9ca8"
         transform="matrix(0.707,0.707,-0.707,0.707,290.748,-22.15)"
         id="path2-5" />
      <path
         style="fill:#ff6600"
         d="m 12.986,499.014 c -17.315,-17.315 -17.315,-45.388 0,-62.703 L 131.631,317.666 c 6.451,-6.451 16.909,-6.451 23.36,0 l 39.343,39.343 c 6.451,6.451 6.451,16.909 0,23.36 L 75.69,499.014 c -17.315,17.315 -45.389,17.315 -62.704,0 z"
         fill="#fe646f"
         id="path4-6" />
      <circle
         style="fill:#aa0044"
         cx="333.76099"
         cy="178.239"
         fill="#9facba"
         r="178.239"
         id="circle6-0" />
      <circle
         cx="333.76099"
         cy="178.239"
         fill="#d8ecfe"
         r="127.646"
         id="circle8-0" />
      <path
         style="fill:#550022"
         d="m 459.795,52.205 c -4.17,-4.17 -8.499,-8.083 -12.96,-11.753 57.597,70.016 53.684,173.671 -11.753,239.108 -65.437,65.437 -169.091,69.35 -239.108,11.753 3.67,4.462 7.583,8.79 11.753,12.96 69.607,69.607 182.461,69.607 252.068,0 69.607,-69.607 69.607,-182.462 0,-252.068 z"
         fill="#8d9ca8"
         id="path10-3" />
      <path
         style="fill:#d45500"
         d="m 194.334,357.009 -24.713,-24.713 c 6.451,6.451 6.451,16.909 0,23.36 L 50.977,474.301 c -12.927,12.927 -31.848,16.198 -47.814,9.823 2.164,5.42 5.435,10.501 9.824,14.889 17.315,17.315 45.388,17.315 62.703,0 L 194.335,380.368 c 6.45,-6.45 6.45,-16.908 -0.001,-23.359 z"
         fill="#fd4755"
         id="path12-5" />
      <path
         d="m 424.021,87.979 c -3.388,-3.388 -6.924,-6.536 -10.581,-9.463 40.068,50.072 36.919,123.556 -9.463,169.938 -46.381,46.381 -119.866,49.53 -169.938,9.463 2.926,3.657 6.075,7.194 9.463,10.581 49.769,49.769 130.75,49.769 180.519,0 49.769,-49.769 49.769,-130.75 0,-180.519 z"
         fill="#c4e2ff"
         id="path14-5" />
    </g>
  </g>
</svg>
